<?xml version="1.0" encoding="UTF-8" standalone="no"?>
<svg
   xmlns:dc="http://purl.org/dc/elements/1.1/"
   xmlns:cc="http://creativecommons.org/ns#"
   xmlns:rdf="http://www.w3.org/1999/02/22-rdf-syntax-ns#"
   xmlns:svg="http://www.w3.org/2000/svg"
   xmlns="http://www.w3.org/2000/svg"
   xmlns:sodipodi="http://sodipodi.sourceforge.net/DTD/sodipodi-0.dtd"
   xmlns:inkscape="http://www.inkscape.org/namespaces/inkscape"
   version="1.1"
   x="0"
   y="0"
   width="538.80511"
   height="194.0159"
   viewBox="0 0 538.80511 194.0159"
   id="svg2"
   inkscape:version="0.91 r13725"
   sodipodi:docname="flapjack-logo.svg">
  <metadata
     id="metadata69">
    <rdf:RDF>
      <cc:Work
         rdf:about="">
        <dc:format>image/svg+xml</dc:format>
        <dc:type
           rdf:resource="http://purl.org/dc/dcmitype/StillImage" />
        <dc:title></dc:title>
      </cc:Work>
    </rdf:RDF>
  </metadata>
  <defs
     id="defs67" />
  <sodipodi:namedview
     pagecolor="#ffffff"
     bordercolor="#666666"
     borderopacity="1"
     objecttolerance="10"
     gridtolerance="10"
     guidetolerance="10"
     inkscape:pageopacity="0"
     inkscape:pageshadow="2"
     inkscape:window-width="718"
     inkscape:window-height="761"
     id="namedview65"
     showgrid="false"
     fit-margin-top="0"
     fit-margin-left="0"
     fit-margin-right="0"
     fit-margin-bottom="0"
     inkscape:zoom="0.49166667"
     inkscape:cx="350.88736"
     inkscape:cy="-231.31015"
     inkscape:window-x="-4"
     inkscape:window-y="0"
     inkscape:window-maximized="0"
     inkscape:current-layer="svg2" />
  <g
     id="g4197"
     transform="translate(-13.146534,-54.673948)">
    <g
       id="Layer_1">
      <g
         id="g5">
        <g
           id="g7">
          <path
             id="path9"
             d="m 129.568,109.301 c 1.665,0.036 0.97,-0.044 2.094,0.134 6.627,1.416 15.279,15.514 18.839,23.368 3.561,7.853 13.673,34.656 9.707,38.027 -3.966,3.371 -14.912,1.643 -25.612,7.061 -10.699,5.417 -24.106,14.516 -29.936,13.188 -5.829,-1.327 -13.032,-19.416 -18.129,-19.221 -5.096,0.195 -18.345,-0.78 -29.739,7.526 -11.393,8.306 -30.368,33.477 -30.368,33.477 0,0 -3.857,0.747 -8.707,-3.27 -6.07,-5.026 -3.554,-10.213 -3.554,-10.213 0,0 16.373,-21.733 35.233,-30.563 18.86,-8.83 26.374,-6.384 30.004,-9.624 3.63,-3.239 -5.855,-11.998 -4.301,-16.231 1.555,-4.233 18.047,-15.954 26.04,-20.91 8.727,-4.975 18.384,-11.621 28.429,-12.749 z m 20.049,48.269 c -8.661,0.146 -17.051,2.994 -25.289,5.524 -21.427,7.036 -22.434,9.157 -21.404,12.357 1.129,3.507 6.768,-2.847 23.569,-7.002 16.801,-4.155 28.385,-6.363 27.888,-8.993 -0.547,-1.909 -3.318,-1.751 -4.764,-1.886 z m -5.19,-20.86 c -9.771,0.22 -19.21,4.77 -28.254,8.153 -22.583,9.427 -23.526,11.804 -22.208,15.173 1.443,3.693 7.092,-3.652 24.887,-9.572 17.795,-5.92 30.108,-9.292 29.402,-12.092 -0.552,-1.557 -2.523,-1.567 -3.827,-1.662 z m -12.563,-18.67 c -9.28,0.627 -20.082,7.798 -28.16,12.106 -21.192,12.495 -21.827,14.983 -20.096,18.138 1.897,3.458 6.568,-4.609 23.459,-12.961 16.89,-8.352 28.669,-13.413 27.615,-16.089 -0.549,-1.083 -1.772,-1.17 -2.818,-1.194 z"
             inkscape:connector-curvature="0"
             style="fill:#d7d7d7" />
          <path
             id="path11"
             d="m 129.568,109.301 c 1.665,0.036 0.97,-0.044 2.094,0.134 6.627,1.416 15.279,15.514 18.839,23.368 3.561,7.853 13.673,34.656 9.707,38.027 -3.966,3.371 -14.912,1.643 -25.612,7.061 -10.699,5.417 -24.106,14.516 -29.936,13.188 -5.829,-1.327 -13.032,-19.416 -18.129,-19.221 -5.096,0.195 -18.345,-0.78 -29.739,7.526 -11.393,8.306 -30.368,33.477 -30.368,33.477 0,0 -3.857,0.747 -8.707,-3.27 -6.07,-5.026 -3.554,-10.213 -3.554,-10.213 0,0 16.373,-21.733 35.233,-30.563 18.86,-8.83 26.374,-6.384 30.004,-9.624 3.63,-3.239 -5.855,-11.998 -4.301,-16.231 1.555,-4.233 18.047,-15.954 26.04,-20.91 8.727,-4.975 18.384,-11.621 28.429,-12.749 z m 20.049,48.269 c -8.661,0.146 -17.051,2.994 -25.289,5.524 -21.427,7.036 -22.434,9.157 -21.404,12.357 1.129,3.507 6.768,-2.847 23.569,-7.002 16.801,-4.155 28.385,-6.363 27.888,-8.993 -0.547,-1.909 -3.318,-1.751 -4.764,-1.886 z m -5.19,-20.86 c -9.771,0.22 -19.21,4.77 -28.254,8.153 -22.583,9.427 -23.526,11.804 -22.208,15.173 1.443,3.693 7.092,-3.652 24.887,-9.572 17.795,-5.92 30.108,-9.292 29.402,-12.092 -0.552,-1.557 -2.523,-1.567 -3.827,-1.662 z m -12.563,-18.67 c -9.28,0.627 -20.082,7.798 -28.16,12.106 -21.192,12.495 -21.827,14.983 -20.096,18.138 1.897,3.458 6.568,-4.609 23.459,-12.961 16.89,-8.352 28.669,-13.413 27.615,-16.089 -0.549,-1.083 -1.772,-1.17 -2.818,-1.194 z"
             inkscape:connector-curvature="0"
             style="fill-opacity:0;stroke:#000000;stroke-width:1" />
        </g>
        <g
           id="g13">
          <g
             id="g15">
            <path
               id="path17"
               d="M 73.206,118.79 C 42.518,103.207 22.648,79.67 28.825,66.219 c 6.177,-13.451 36.062,-11.723 66.75,3.86 30.689,15.583 50.559,39.12 44.381,52.571 -6.177,13.451 -36.062,11.723 -66.75,-3.86 z"
               inkscape:connector-curvature="0"
               style="fill:#e6ce9e" />
            <path
               id="path19"
               d="M 73.206,118.79 C 42.518,103.207 22.648,79.67 28.825,66.219 c 6.177,-13.451 36.062,-11.723 66.75,3.86 30.689,15.583 50.559,39.12 44.381,52.571 -6.177,13.451 -36.062,11.723 -66.75,-3.86 z"
               inkscape:connector-curvature="0"
               style="fill-opacity:0;stroke:#000000;stroke-width:1" />
          </g>
          <g
             id="g21">
            <path
               id="path23"
               d="m 29.79,64.046 -2.091,6.164 c 0,0 -2.948,26.256 51.384,51.338 54.331,25.082 58.451,4.354 58.451,4.354 l 3.388,-5.425 c 0,0 -9.286,16.198 -60.87,-7.78 C 27.013,88.044 29.79,64.046 29.79,64.046 Z"
               inkscape:connector-curvature="0"
               style="fill:#fff2cf" />
            <path
               id="path25"
               d="m 29.79,64.046 -2.091,6.164 c 0,0 -2.948,26.256 51.384,51.338 54.331,25.082 58.451,4.354 58.451,4.354 l 3.388,-5.425 c 0,0 -9.286,16.198 -60.87,-7.78 C 27.013,88.044 29.79,64.046 29.79,64.046 Z"
               inkscape:connector-curvature="0"
               style="fill-opacity:0;stroke:#000000;stroke-width:1" />
          </g>
        </g>
      </g>
      <path
         id="path27"
         d="m 176.509,78.562 0.234,2.083 0.409,4.155 0.335,4.162 0.264,4.178 0.2,4.191 0.133,4.206 0.08,4.212 0.017,4.225 -0.031,4.231 -0.081,4.237 -0.201,6.367 -0.347,8.456 -0.221,8.292 -0.123,4.113 0,0 c 0,0.009 0,0.018 0,0.027 l 0,0 -0.001,0.041 -0.003,0.181 -0.004,0.224 -0.005,0.277 -0.007,0.334 -0.012,0.387 -0.016,0.435 -0.021,0.478 -0.027,0.514 -0.034,0.546 -0.068,0.874 -0.121,1.214 -0.16,1.204 -0.2,1.141 -0.164,0.727 -0.105,0.382 -0.109,0.346 -0.093,0.24 -0.053,0.096 0.028,-0.103 0.179,-0.372 0.459,-0.729 0.904,-1.118 1.414,-1.327 1.623,-1.098 1.305,-0.545 0.756,-0.145 0.298,0.009 0.122,0.06 0.196,0.065 -0.086,-0.013 0.102,0.075 0.163,0.147 0.155,0.226 0.079,0.277 -0.026,0.221 -0.073,0.13 -0.108,0.042 -0.116,-0.038 -0.172,-0.232 -0.257,-0.383 -0.249,-0.256 -0.172,-0.183 -0.159,-0.199 -0.135,-0.201 -0.031,-0.155 0,0 c 0.619,-1.773 -0.3,-2.76 -2.052,-2.204 -1.752,0.556 -3.675,2.445 -4.294,4.218 0,0 0,0 0,0 l -0.092,0.021 -0.306,0.255 -0.382,0.382 -0.433,0.501 -0.676,0.92 -0.818,1.359 -0.518,1.119 -0.285,0.845 -0.209,0.889 -0.092,0.92 0.053,0.934 0.27,0.894 0.474,0.725 0.494,0.432 0.371,0.218 0.064,0.044 0,0 c 0.064,0.024 0.129,0.046 0.196,0.065 l 0,0 0.585,0.193 1.18,0.134 1.583,-0.2 2.076,-0.765 2.342,-1.473 2.082,-1.847 1.523,-1.771 1.031,-1.503 0.706,-1.256 0.511,-1.086 0.388,-0.974 0.311,-0.907 0.255,-0.865 0.224,-0.884 0.266,-1.246 0.265,-1.571 0.196,-1.519 0.141,-1.429 0.076,-1 0.039,-0.632 0.031,-0.592 0.024,-0.547 0.018,-0.494 0.012,-0.439 0.009,-0.375 0.006,-0.304 0.003,-0.219 0.001,-0.111 0.001,-0.045 0,0.027 0.124,-4.186 0.133,-8.352 -0.223,-8.228 -0.29,-6.158 -0.239,-4.112 -0.276,-4.114 -0.32,-4.113 -0.356,-4.116 -0.41,-4.11 -0.454,-4.108 -0.508,-4.101 -0.562,-4.095 -0.62,-4.077 -0.331,-2.022 c -0.253,-1.832 -2.469,-1.947 -4.949,-0.256 -2.481,1.691 -4.287,4.547 -4.033,6.38 l 0,0"
         inkscape:connector-curvature="0"
         style="fill:#000000" />
      <path
         id="path29"
         d="m 205.491,62.566 0.457,-0.156 0.869,-0.293 0.819,-0.269 0.771,-0.248 0.725,-0.226 0.68,-0.206 0.635,-0.185 0.591,-0.167 0.547,-0.147 0.505,-0.128 0.464,-0.111 0.422,-0.092 0.381,-0.077 0.341,-0.06 0.301,-0.044 0.261,-0.029 0.221,-0.016 0.181,-0.004 0.14,0.007 0.099,0.014 0.058,0.018 0.018,0.016 -0.021,0.001 -0.049,-0.026 -0.074,-0.082 -0.053,-0.283 0.128,-0.447 0.146,-0.267 0.008,-0.04 -0.144,0.11 -0.265,0.199 -0.358,0.253 -0.431,0.286 -0.488,0.307 -0.824,0.487 -1.178,0.641 -1.197,0.591 -0.863,0.386 -0.54,0.221 -0.52,0.195 -0.476,0.158 -0.196,0.058 0,0 c -0.855,0.256 -1.81,1.175 -2.132,2.053 -0.321,0.877 0.112,1.381 0.968,1.125 l 0.322,-0.098 0.625,-0.211 0.65,-0.247 0.686,-0.283 1.047,-0.473 1.403,-0.698 1.373,-0.752 0.985,-0.586 0.641,-0.406 0.617,-0.416 0.595,-0.429 0.579,-0.455 0.574,-0.508 0.586,-0.613 0.57,-0.787 0.38,-0.907 0.016,-0.672 -0.153,-0.323 -0.168,-0.161 -0.194,-0.111 -0.213,-0.075 -0.23,-0.047 -0.25,-0.026 -0.271,-0.007 -0.294,0.009 -0.321,0.026 -0.348,0.041 -0.378,0.057 -0.41,0.073 -0.443,0.089 -0.477,0.106 -0.513,0.123 -0.551,0.14 -0.589,0.158 -0.629,0.177 -0.67,0.196 -0.712,0.216 -0.755,0.236 -0.8,0.257 -0.844,0.278 -0.887,0.298 -0.458,0.156 c -0.87,0.298 -1.803,1.239 -2.084,2.104 -0.281,0.865 0.196,1.325 1.066,1.028 l 0,0"
         inkscape:connector-curvature="0"
         style="fill:#000000" />
      <path
         id="path31"
         d="m 173.757,81.239 0.96,-0.284 2.029,-0.67 3.062,-1.209 4.012,-1.68 3.936,-1.71 3.841,-1.674 3.762,-1.598 2.76,-1.118 1.81,-0.697 1.828,-0.67 1.829,-0.63 0.874,-0.286 -0.109,0.035 0.306,-0.095 0.409,-0.112 0.604,-0.136 0.851,-0.152 0.921,-0.138 1.058,-0.155 1.211,-0.206 1.394,-0.305 1.25,-0.349 0.957,-0.323 0.557,-0.21 0,0 c 3.375,-1.304 6.841,-4.989 7.742,-8.229 0.9,-3.24 -1.105,-4.809 -4.48,-3.505 l -0.024,0.014 -0.187,0.076 -0.431,0.139 -0.801,0.187 -0.958,0.166 -1.114,0.164 -1.285,0.199 -1.416,0.272 -1.156,0.278 -0.8,0.227 -0.31,0.097 0,0 c -0.037,0.011 -0.073,0.023 -0.109,0.035 l 0,0 -1.117,0.367 -2.127,0.736 -2.097,0.771 -2.088,0.808 -3.045,1.236 -3.925,1.668 -3.818,1.665 -3.727,1.619 -3.693,1.558 -2.765,1.111 -1.886,0.806 -1.009,0.429 c 0,0 0,0 0,0 -3.24,1.173 -6.647,4.695 -7.61,7.864 -0.963,3.17 0.884,4.788 4.124,3.614 l 0,0"
         inkscape:connector-curvature="0"
         style="fill:#000000" />
      <path
         id="path33"
         d="m 184.819,106.772 0.618,-0.331 0.762,-0.324 0.69,-0.233 0.802,-0.235 0.898,-0.222 0.988,-0.201 1.065,-0.185 1.132,-0.168 1.828,-0.231 2.559,-0.291 2.702,-0.34 2.164,-0.346 1.541,-0.309 0.834,-0.192 0,0 c 3.179,-0.759 6.92,-4.135 8.355,-7.539 1.435,-3.405 0.021,-5.549 -3.159,-4.789 0,0 0,0 0,0 l -0.492,0.125 -1.117,0.248 -1.839,0.336 -2.65,0.396 -2.784,0.397 -2.162,0.357 -1.512,0.296 -1.565,0.362 -1.623,0.449 -1.691,0.553 -1.764,0.685 -1.848,0.855 -1.747,0.95 -0.623,0.383 c 0,0 0,0 0,0 -3.22,1.852 -5.911,5.49 -6.011,8.125 -0.1,2.636 2.429,3.271 5.649,1.419 l 0,0"
         inkscape:connector-curvature="0"
         style="fill:#000000" />
      <path
         id="path35"
         d="m 219.607,94.321 -0.036,0.947 -0.132,1.781 -0.2,1.73 -0.246,1.713 -0.298,1.709 -0.329,1.707 -0.557,2.599 -0.8,3.491 -0.805,3.558 -0.564,2.754 -0.346,1.898 -0.291,1.904 -0.211,1.917 -0.084,1.007 0,0 c -0.002,0.028 -0.003,0.055 -0.004,0.082 l 0,0 -0.065,1.043 -0.035,2.158 0.033,3.204 0.097,4.179 0.026,3.037 -0.039,1.945 -0.041,0.927 0.003,-0.076 -0.029,0.489 -0.076,0.91 -0.151,1.453 -0.233,2.108 -0.203,2.284 -0.084,1.839 0.002,1.281 0.066,1.256 0.141,1.256 0.23,1.243 0.331,1.22 0.445,1.184 0.428,0.886 0.334,0.581 0.189,0.296 0,0 c 1.218,1.888 4.859,1.036 8.133,-1.903 3.274,-2.939 4.94,-6.851 3.721,-8.739 0,0 0,0 0,0 l -0.092,-0.14 -0.189,-0.31 -0.254,-0.492 -0.292,-0.721 -0.222,-0.757 -0.161,-0.794 -0.105,-0.831 -0.054,-0.87 -0.01,-0.873 0.056,-1.425 0.182,-2.071 0.241,-2.175 0.171,-1.662 0.088,-1.1 0.031,-0.493 0,0 c 0.001,-0.026 0.002,-0.051 0.003,-0.076 l 0,0 0.048,-1.131 0.041,-2.176 -0.028,-3.153 -0.095,-4.081 -0.034,-2.988 0.029,-1.962 0.015,-1.016 -0.004,0.082 0.016,-0.742 0.08,-1.577 0.104,-1.586 0.133,-1.589 0.268,-2.473 0.406,-3.411 0.38,-3.486 0.207,-2.644 0.086,-1.795 0.017,-1.8 -0.052,-1.805 -0.147,-1.795 -0.24,-1.756 -0.157,-0.826 c -0.128,-1.864 -2.198,-2.112 -4.624,-0.554 -2.426,1.558 -4.29,4.332 -4.162,6.196 l 0,0"
         inkscape:connector-curvature="0"
         style="fill:#000000" />
      <path
         id="path37"
         d="m 265.085,118.737 -0.331,-0.232 -0.696,-0.447 -0.712,-0.402 -0.709,-0.355 -0.711,-0.306 -0.716,-0.254 -0.723,-0.201 -0.728,-0.151 -0.735,-0.099 -0.741,-0.049 -0.741,-0.009 -0.751,0.042 -0.761,0.096 -0.771,0.149 -0.781,0.203 -0.79,0.259 -0.797,0.315 -0.802,0.362 -0.805,0.419 -0.805,0.475 -0.799,0.527 -0.788,0.577 -0.771,0.621 -0.752,0.659 -0.728,0.69 -0.7,0.72 -0.67,0.745 -0.637,0.766 -0.858,1.129 -1.069,1.573 -0.978,1.668 -0.853,1.7 -0.743,1.725 -0.62,1.744 -0.503,1.757 -0.386,1.763 -0.257,1.76 -0.134,1.752 -0.011,1.327 0.039,0.883 0.074,0.85 0.111,0.841 0.147,0.83 0.185,0.819 0.222,0.808 0.261,0.792 0.301,0.778 0.342,0.759 0.384,0.743 0.427,0.722 0.468,0.701 0.514,0.678 0.557,0.655 0.603,0.63 0.336,0.319 0,0 c 0.01,0.008 0.021,0.017 0.031,0.025 l 0,0 0.205,0.19 0.451,0.384 0.465,0.36 0.469,0.328 0.689,0.423 0.935,0.46 0.996,0.342 1.045,0.214 1.115,0.079 1.206,-0.079 1.318,-0.267 1.428,-0.477 1.512,-0.701 1.543,-0.925 1.497,-1.097 1.388,-1.198 1.242,-1.246 1.085,-1.242 0.943,-1.213 0.818,-1.174 0.722,-1.132 0.633,-1.094 0.795,-1.518 0.899,-1.959 0.753,-1.874 0.49,-1.323 0.282,-0.821 0.252,-0.757 0.231,-0.704 0.211,-0.644 0.187,-0.573 0.076,-0.239 -0.012,0.027 0.165,-0.478 0.308,-0.888 0.297,-0.846 0.298,-0.835 0.443,-1.26 0.469,-1.345 0.34,-0.983 0.185,-0.529 0,0 c 0.018,-0.047 0.034,-0.093 0.05,-0.139 l 0,0 0.033,-0.102 0.133,-0.454 0.105,-0.411 0.087,-0.343 0.072,-0.261 0.034,-0.101 -0.094,0.285 -0.956,1.673 -5.941,2.786 -0.449,-0.853 -0.018,-0.196 10e-4,-0.122 -0.021,0.394 -0.113,0.622 -0.32,1.035 -0.548,1.613 -0.435,1.463 -0.24,1.152 -0.084,0.661 0,0 c -0.001,0.048 -0.001,0.095 0,0.142 l 0,0 -0.097,0.641 -0.115,1.391 -0.014,1.376 0.077,1.309 0.132,1.265 0.205,1.208 0.267,1.155 0.318,1.11 0.45,0.991 0.557,0.889 0.865,1.27 1.243,1.623 1.27,1.605 0.615,0.804 0,0 c 1.35,1.768 5.056,0.758 8.277,-2.255 3.222,-3.013 4.739,-6.888 3.389,-8.655 0,0 0,0 0,0 l -0.657,-0.859 -1.26,-1.592 -1.197,-1.487 -0.851,-1.067 -0.512,-0.694 -0.546,-0.626 -0.592,-0.555 -0.547,-0.568 -0.502,-0.589 -0.455,-0.615 -0.381,-0.668 -0.33,-0.712 -0.279,-0.817 -0.118,-0.514 0,0.142 -0.062,-0.12 -0.077,-0.445 0.013,-0.997 0.186,-1.711 0.128,-1.425 0.05,-0.976 0.001,-0.386 0,0 c 10e-4,-0.041 0.002,-0.082 10e-4,-0.122 l 0,0 -0.019,-0.283 -0.464,-0.959 -5.968,2.763 -0.994,1.724 -0.17,0.48 -0.096,0.332 -0.081,0.305 -0.077,0.282 -0.062,0.201 -0.023,0.072 -0.04,0.106 0.05,-0.139 -0.174,0.418 -0.369,0.817 -0.584,1.193 -0.633,1.206 -0.45,0.838 -0.488,0.896 -0.525,0.965 -0.272,0.503 0,0 c -0.004,0.009 -0.008,0.018 -0.012,0.027 l 0,0 -0.184,0.352 -0.354,0.682 -0.36,0.701 -0.369,0.719 -0.378,0.731 -0.381,0.722 -0.563,1.067 -0.768,1.395 -0.763,1.317 -0.547,0.889 -0.308,0.464 -0.258,0.375 -0.202,0.272 -0.117,0.158 -0.014,0.044 0.099,-0.056 0.204,-0.118 0.269,-0.137 0.27,-0.098 0.195,-0.017 0.064,0.053 -0.091,0.093 -0.251,0.105 -0.391,0.071 -0.509,0.006 -0.608,-0.082 -0.719,-0.188 -0.586,-0.218 -0.397,-0.175 -0.414,-0.207 -0.442,-0.247 -0.246,-0.15 0.031,0.025 -0.287,-0.175 -0.582,-0.393 -0.545,-0.417 -0.51,-0.438 -0.476,-0.458 -0.442,-0.475 -0.408,-0.493 -0.376,-0.509 -0.343,-0.524 -0.312,-0.538 -0.281,-0.55 -0.249,-0.561 -0.219,-0.573 -0.189,-0.581 -0.162,-0.589 -0.132,-0.569 -0.152,-0.873 -0.112,-1.204 -0.007,-1.207 0.084,-1.193 0.174,-1.167 0.254,-1.128 0.319,-1.075 0.382,-1.006 0.423,-0.925 0.485,-0.886 0.402,-0.615 0.245,-0.344 0.245,-0.32 0.245,-0.297 0.247,-0.278 0.252,-0.256 0.259,-0.238 0.267,-0.224 0.281,-0.213 0.297,-0.204 0.319,-0.193 0.342,-0.182 0.365,-0.159 0.39,-0.141 0.416,-0.121 0.44,-0.097 0.463,-0.07 0.484,-0.039 0.505,-0.005 0.515,0.044 0.529,0.085 0.541,0.128 0.553,0.172 0.563,0.22 0.57,0.268 0.573,0.324 0.571,0.384 0.584,0.447 0.308,0.257 c 0,0 0,0 0,0 0.838,0.64 2.673,-0.079 4.101,-1.605 1.427,-1.526 1.906,-3.281 1.069,-3.921 l 0,0"
         inkscape:connector-curvature="0"
         style="fill:#000000" />
      <path
         id="path39"
         d="m 286.074,134.848 -0.369,3.209 -0.864,6.417 -0.796,6.354 -0.4,6.157 -0.303,6.153 -0.226,6.185 -0.093,4.668 -0.015,3.126 0.029,3.122 0.08,3.125 0.061,1.582 -10e-4,-0.029 0.007,0.23 0,0.414 -0.011,0.499 -0.019,0.591 -0.034,1.001 -0.028,1.063 -0.006,0.739 0.011,0.724 0.037,0.713 0.075,0.702 0.138,0.706 0.202,0.615 0.25,0.485 0.356,0.442 0.597,0.433 1.031,0.299 1.673,-0.128 2.204,-0.854 2.136,-1.403 1.221,-1.057 0,0 c 0.529,-0.5 1.023,-1.037 1.47,-1.596 l 0,0 0.076,-0.094 1.794,-2.939 0.611,-1.869 0.166,-1.089 0.05,-0.85 0.002,-0.767 -0.043,-1.071 -0.103,-1.401 -0.09,-0.999 -0.054,-0.601 -0.045,-0.536 -0.031,-0.451 -0.013,-0.334 0.007,-0.154 -0.003,0.16 -0.017,0.183 0.092,-1.572 -0.223,-2.882 -0.574,-2.74 -0.694,-2.751 -0.506,-1.333 0,0 c 0.123,-1.35 -1.07,-1.749 -2.666,-0.89 -1.595,0.858 -2.989,2.649 -3.112,4 0,0 0,0 0,0 l -0.804,1.94 -1.411,3.76 -1.379,3.743 -1.027,3.602 -0.284,1.677 0,0 c -0.007,0.061 -0.013,0.122 -0.017,0.183 l 0,0 -0.024,0.441 0,0.549 0.024,0.534 0.039,0.554 0.048,0.579 0.054,0.598 0.081,0.896 0.09,1.167 0.036,0.765 0.006,0.366 0.005,0.175 0.062,-0.194 0.438,-1.135 1.546,-2.391 -0.081,0.101 1.47,-1.596 1.069,-0.913 1.851,-1.181 1.945,-0.719 1.442,-0.076 0.822,0.272 0.413,0.333 0.192,0.272 0.108,0.251 0.024,0.15 -0.038,-0.1 -0.039,-0.287 -0.027,-0.421 -0.01,-0.523 0.003,-0.585 0.026,-0.989 0.035,-1.028 0.022,-0.689 0.012,-0.684 -0.003,-0.635 -0.007,-0.234 0,0 c -10e-4,-0.009 -10e-4,-0.019 -10e-4,-0.028 l 0,0 -0.058,-1.481 -0.078,-3 -0.029,-3.006 0.013,-3.001 0.089,-4.526 0.222,-6.074 0.3,-6.104 0.271,-6.096 -0.145,-5.891 -0.318,-5.819 -0.163,-2.905 c 0.074,-2.221 -2.071,-2.746 -4.792,-1.173 -2.72,1.573 -4.986,4.648 -5.06,6.869 l 0,0"
         inkscape:connector-curvature="0"
         style="fill:#000000" />
      <path
         id="path41"
         d="m 295.721,122.713 0.11,-0.713 0.25,-1.499 0.262,-1.544 0.278,-1.552 0.278,-1.505 0.324,-1.438 0.24,-0.967 0.176,-0.581 0.167,-0.54 0.178,-0.478 0.177,-0.398 0.152,-0.296 0.121,-0.175 0.056,-0.029 -0.058,0.128 -0.188,0.255 -0.283,0.297 -0.271,0.225 -0.14,0.106 0.047,0.017 0.225,-0.013 0.38,-0.004 0.504,0.044 0.609,0.109 0.702,0.184 0.784,0.269 0.406,0.162 -0.026,-0.013 0.058,0.026 0.115,0.053 0.145,0.072 0.177,0.092 0.318,0.171 0.499,0.278 0.567,0.325 0.614,0.368 0.982,0.604 1.332,0.856 0.943,0.638 0.575,0.401 0.512,0.377 0.432,0.337 0.259,0.215 0.136,0.12 0.106,0.101 0.067,0.072 0.003,0.007 -0.026,-0.033 0.297,0.39 0.502,0.762 0.408,0.787 0.338,0.81 0.273,0.832 0.203,0.853 0.136,0.871 0.073,0.884 0.005,0.897 -0.054,0.902 -0.119,0.907 -0.175,0.903 -0.22,0.891 -0.287,0.885 -0.326,0.861 -0.36,0.834 -0.406,0.805 -0.436,0.765 -0.452,0.718 -0.474,0.666 -0.481,0.606 -0.475,0.541 -0.466,0.469 -0.444,0.396 -0.415,0.321 -0.377,0.249 -0.338,0.18 -0.298,0.121 -0.262,0.08 -0.237,0.043 -0.227,0.018 -0.231,0.013 0.014,-0.057 0,0 c -2.929,1.234 -5.833,4.452 -6.487,7.188 -0.654,2.735 1.19,3.952 4.119,2.718 l 0.831,-0.401 1.383,-0.772 1.358,-0.889 1.315,-0.98 1.253,-1.053 1.176,-1.114 1.091,-1.151 1.002,-1.173 0.909,-1.184 0.822,-1.186 0.739,-1.182 0.662,-1.175 0.586,-1.167 0.518,-1.157 0.46,-1.149 0.394,-1.14 0.336,-1.131 0.29,-1.126 0.228,-1.116 0.166,-1.104 0.129,-1.102 0.066,-1.089 0.009,-1.077 -0.044,-1.065 -0.104,-1.051 -0.163,-1.034 -0.23,-1.013 -0.296,-0.989 -0.365,-0.964 -0.44,-0.93 -0.518,-0.894 -0.575,-0.85 -0.299,-0.389 0,0 c -0.008,-0.011 -0.017,-0.022 -0.026,-0.033 l 0,0 -0.074,-0.085 -0.133,-0.136 -0.151,-0.141 -0.175,-0.153 -0.298,-0.244 -0.464,-0.36 -0.528,-0.398 -0.581,-0.432 -0.942,-0.68 -1.303,-0.925 -0.953,-0.666 -0.6,-0.411 -0.551,-0.376 -0.493,-0.328 -0.324,-0.208 -0.196,-0.121 -0.179,-0.106 -0.158,-0.088 -0.057,-0.029 0,0 c -0.008,-0.005 -0.017,-0.009 -0.026,-0.013 l 0,0 -0.48,-0.235 -0.904,-0.387 -0.878,-0.295 -0.865,-0.202 -0.867,-0.106 -0.894,0 -0.954,0.136 -1.041,0.305 -1.138,0.522 -1.186,0.764 -1.116,0.95 -0.942,1.015 -0.739,0.986 -0.553,0.921 -0.421,0.857 -0.326,0.812 -0.24,0.777 -0.181,0.757 -0.138,0.748 -0.079,0.751 -0.054,1.097 0.076,1.395 0.17,1.366 0.284,1.292 0.353,1.214 0.4,1.109 0.199,0.515 c 0,0 0,0 0,0 0.038,0.516 0.615,0.583 1.289,0.149 0.674,-0.435 1.19,-1.206 1.153,-1.723 l 0,0"
         inkscape:connector-curvature="0"
         style="fill:#000000" />
      <path
         id="path43"
         d="m 335.63,124.932 0.034,1.162 0.118,2.357 0.264,3.517 0.466,4.643 0.526,4.598 0.508,4.546 0.327,3.367 0.201,2.199 0.22,2.154 0.165,2.144 0.133,2.113 0.075,2.094 0.009,1.006 0,-0.081 -0.005,0.458 -0.036,0.798 -0.108,1.205 -0.234,1.653 -0.308,1.687 -0.367,1.761 -0.401,1.827 -0.408,1.884 -0.382,1.93 -0.178,1.028 0,0 c -0.006,0.035 -0.012,0.07 -0.017,0.105 l 0,0 -0.035,0.227 -0.08,0.602 -0.071,0.64 -0.06,0.642 -0.078,0.968 -0.096,1.347 -0.1,1.391 -0.115,1.407 -0.141,1.402 -0.176,1.362 -0.218,1.288 -0.259,1.163 -0.201,0.697 -0.119,0.34 -0.126,0.314 -0.101,0.208 -0.057,0.08 0.018,-0.074 0.133,-0.251 0.289,-0.434 0.476,-0.586 0.645,-0.656 0.72,-0.604 0.661,-0.454 0.528,-0.28 0.385,-0.163 -0.298,0.118 -0.191,0.053 -0.102,0.008 -0.157,0.014 -0.209,0.012 -0.256,0.002 -0.298,-0.014 -0.334,-0.034 -0.598,-0.102 -0.838,-0.225 -0.859,-0.316 -0.903,-0.408 -0.932,-0.49 -0.95,-0.557 -1.456,-0.936 -1.939,-1.324 -1.46,-0.984 -0.996,-0.634 -0.518,-0.311 0,0 c -0.04,-0.024 -0.082,-0.047 -0.124,-0.069 l 0,0 -0.213,-0.11 -0.743,-0.288 -0.765,-0.203 -0.616,-0.13 -0.433,-0.102 -0.228,-0.087 0.015,-0.022 0.095,0.038 0.073,0.038 0.087,0.072 0.092,0.128 0.128,0.273 -0.034,-0.088 0.152,0.536 -0.061,1.32 -0.547,1.563 0.013,-0.008 0.621,-1.292 0,0 c 1.428,-3.407 0,-5.544 -3.188,-4.773 -3.188,0.771 -6.929,4.158 -8.356,7.565 0,0 0,0 0,0 l 0.463,-0.914 -0.416,0.754 -0.939,2.323 -0.194,1.879 0.194,0.899 0.036,0.09 0,0 c 0.037,0.096 0.08,0.186 0.128,0.273 l 0,0 0.205,0.333 0.357,0.435 0.392,0.346 0.46,0.295 0.633,0.289 0.698,0.219 0.565,0.13 0.408,0.083 0.239,0.045 0.192,0.049 0.215,0.11 -0.124,-0.069 0.419,0.25 0.901,0.572 1.442,0.972 2.037,1.389 1.61,1.03 1.135,0.659 1.187,0.613 1.249,0.546 1.329,0.458 1.385,0.336 1.092,0.158 0.804,0.056 0.851,0.004 0.9,-0.057 0.957,-0.128 1.018,-0.21 1.083,-0.304 1.004,-0.352 0.303,-0.12 0,0 c 0.128,-0.051 0.256,-0.105 0.385,-0.163 l 0,0 1.078,-0.527 1.704,-1.032 1.688,-1.286 1.541,-1.436 1.305,-1.459 1.054,-1.392 0.834,-1.289 0.661,-1.186 0.53,-1.098 0.433,-1.031 0.358,-0.979 0.318,-1.001 0.372,-1.392 0.368,-1.73 0.277,-1.686 0.207,-1.639 0.158,-1.577 0.122,-1.5 0.099,-1.394 0.09,-1.265 0.068,-0.847 0.044,-0.487 0.045,-0.418 0.048,-0.378 0.035,-0.232 -0.017,0.105 0.128,-0.751 0.336,-1.712 0.4,-1.848 0.431,-1.966 0.425,-2.065 0.381,-2.142 0.29,-2.151 0.135,-1.614 0.042,-1.058 0.005,-0.462 0,0 c 10e-4,-0.027 10e-4,-0.054 0,-0.081 l 0,0 -0.013,-1.218 -0.088,-2.338 -0.175,-2.301 -0.273,-2.252 -0.328,-2.229 -0.44,-2.171 -0.771,-3.171 -1.114,-4.153 -1.149,-4.098 -1.119,-4.067 -0.781,-3.038 -0.477,-2.028 -0.226,-1.036 c -0.214,-1.802 -2.344,-1.951 -4.758,-0.331 -2.413,1.619 -4.196,4.393 -3.982,6.195 l 0,0"
         inkscape:connector-curvature="0"
         style="fill:#000000" />
      <path
         id="path45"
         d="m 337.95,93.43 0,-0.75 0,-0.75 0,0 c 0,-0.42 -0.425,-0.505 -0.95,-0.19 -0.525,0.315 -0.95,0.91 -0.95,1.33 0,0 0,0 0,0 l 0,0.75 0,0.75 c 0,0 0,0 0,0 0,0.42 0.425,0.505 0.95,0.19 0.525,-0.315 0.95,-0.911 0.95,-1.33 l 0,0"
         inkscape:connector-curvature="0"
         style="fill:#000000" />
      <path
         id="path47"
         d="m 380.95,107.957 -0.332,0.025 -0.613,0.041 -0.565,0.028 -0.532,0.02 -0.746,0.022 -0.897,0.017 -0.82,0.02 -0.791,0.047 -0.812,0.101 -0.908,0.201 -1.084,0.373 -1.305,0.666 -1.414,0.991 -1.089,0.963 -0.658,0.672 -0.522,0.583 -0.482,0.576 -0.457,0.573 -0.445,0.575 -0.44,0.586 -0.441,0.604 -0.449,0.627 -0.464,0.658 -0.245,0.35 0,0 c -0.021,0.033 -0.042,0.065 -0.062,0.098 l 0,0 -0.348,0.494 -0.812,1.259 -0.78,1.323 -0.72,1.296 -0.974,1.856 -1.221,2.418 -0.593,1.184 0,0 c -0.012,0.03 -0.024,0.06 -0.035,0.089 l 0,0 -0.125,0.254 -0.327,0.783 -0.31,0.852 -0.273,0.841 -0.338,1.206 -0.348,1.633 -0.232,1.678 -0.105,1.665 0.03,1.255 0.08,0.827 0.113,0.779 0.15,0.764 0.192,0.746 0.233,0.725 0.278,0.699 0.38,0.625 0.427,0.59 0.479,0.553 0.534,0.51 0.594,0.462 0.656,0.409 0.723,0.347 0.796,0.28 0.873,0.202 0.953,0.117 1.033,0.022 1.116,-0.083 1.196,-0.196 0.749,-0.171 0,0 c 0.092,-0.022 0.185,-0.047 0.278,-0.074 l 0,0 0.532,-0.152 1.538,-0.534 1.71,-0.737 1.708,-0.884 1.686,-1.013 1.645,-1.123 1.589,-1.212 1.521,-1.282 1.446,-1.336 1.368,-1.378 1.283,-1.404 1.201,-1.424 1.116,-1.435 1.03,-1.441 0.944,-1.441 0.856,-1.437 0.459,-0.836 0,0 c 0.043,-0.081 0.085,-0.161 0.126,-0.241 l 0,0 0.248,-0.486 0.614,-1.301 0.575,-1.353 0.484,-1.288 0.393,-1.218 0.33,-1.153 0.274,-1.085 0.182,-0.996 0.12,-0.914 0.087,-0.836 0.064,-0.758 0.042,-0.679 0.02,-0.596 0.007,-0.53 -0.015,-0.503 -0.084,-0.659 -0.677,-1.228 0,0 c -0.423,-0.368 -1.017,-0.548 -1.737,-0.527 l 0,0 -0.12,0.011 -0.628,0.072 -0.925,0.205 -1.183,0.431 -1.47,0.776 -1.654,1.196 -1.924,1.913 -1.704,2.474 -0.847,1.954 -0.349,1.383 -0.151,1.121 -0.072,1.022 -0.022,0.992 -0.008,1.004 0.019,1.021 0.048,1.038 0.073,1.053 0.217,1.54 0.492,1.985 0.552,1.976 0.581,1.909 0.442,1.367 0.29,0.867 0.282,0.82 0.272,0.769 0.257,0.714 0.241,0.653 0.221,0.586 0.198,0.513 0.172,0.435 0.144,0.352 0.065,0.155 0,0 c 0.909,2.153 4.379,1.669 7.752,-1.082 3.373,-2.75 5.37,-6.725 4.462,-8.878 l -0.044,-0.104 -0.125,-0.304 -0.156,-0.395 -0.184,-0.477 -0.209,-0.553 -0.229,-0.62 -0.246,-0.681 -0.258,-0.733 -0.269,-0.781 -0.274,-0.814 -0.415,-1.283 -0.547,-1.793 -0.511,-1.822 -0.451,-1.807 -0.379,-1.237 -0.26,-0.742 -0.225,-0.697 -0.187,-0.642 -0.141,-0.571 -0.075,-0.484 -0.039,-0.342 -0.024,-0.118 -0.122,0.281 -0.513,1.004 -1.257,1.689 -1.511,1.439 -1.339,0.938 -1.124,0.567 -0.803,0.271 -0.511,0.097 -0.18,0.017 0.117,0.004 -1.737,-0.527 -0.638,-1.194 -0.035,-0.397 -0.008,0.002 -0.03,0.202 -0.067,0.341 -0.099,0.447 -0.136,0.536 -0.176,0.608 -0.209,0.661 -0.218,0.691 -0.202,0.696 -0.227,0.702 -0.247,0.693 -0.244,0.661 -0.247,0.613 -0.303,0.664 -0.25,0.491 0.126,-0.241 -0.054,0.115 -0.271,0.489 -0.311,0.503 -0.344,0.508 -0.369,0.501 -0.385,0.483 -0.397,0.46 -0.397,0.427 -0.395,0.392 -0.388,0.356 -0.38,0.32 -0.373,0.287 -0.374,0.258 -0.386,0.235 -0.408,0.212 -0.598,0.23 -0.538,0.155 0.278,-0.074 -0.025,0.017 -0.29,0.072 -0.288,0.045 -0.29,0.018 -0.292,-0.013 -0.295,-0.046 -0.295,-0.083 -0.293,-0.12 -0.288,-0.159 -0.278,-0.197 -0.267,-0.237 -0.253,-0.273 -0.237,-0.308 -0.219,-0.341 -0.255,-0.326 -0.237,-0.354 -0.217,-0.379 -0.197,-0.401 -0.177,-0.419 -0.15,-0.399 -0.213,-0.618 -0.238,-0.867 -0.16,-0.841 -0.083,-0.822 -0.018,-0.562 -0.006,-0.289 0,-0.234 0.023,-0.25 0.065,-0.24 -0.035,0.089 0.28,-1 0.566,-1.943 0.457,-1.374 0.301,-0.823 0.311,-0.756 0.363,-0.773 0.274,-0.501 -0.062,0.098 0.168,-0.289 0.321,-0.55 0.289,-0.486 0.253,-0.42 0.216,-0.352 0.175,-0.282 0.134,-0.205 0.081,-0.128 0.021,-0.051 -0.132,0.104 -0.323,0.228 -0.411,0.207 -0.291,0.079 -0.022,-0.049 0.235,-0.087 0.449,-0.084 0.623,-0.063 0.783,-0.05 0.93,-0.04 0.792,-0.033 0.582,-0.029 0.624,-0.036 0.658,-0.041 0.334,-0.024 c 0,0 0,0 0,0 1.638,-0.121 3.839,-1.806 4.916,-3.763 1.077,-1.956 0.623,-3.445 -1.016,-3.323 l 0,0"
         inkscape:connector-curvature="0"
         style="fill:#000000" />
      <path
         id="path49"
         d="m 420.742,109.128 -0.452,0.363 -1.008,0.841 -1.033,0.886 -1.013,0.902 -0.993,0.92 -0.97,0.938 -0.946,0.957 -0.919,0.975 -0.89,0.996 -0.86,1.012 -0.826,1.027 -0.792,1.042 -0.652,1.054 -0.605,1.051 -0.561,1.045 -0.512,1.035 -0.466,1.025 -0.418,1.013 -0.369,0.997 -0.321,0.98 -0.272,0.962 -0.226,0.942 -0.178,0.921 -0.133,0.9 -0.087,0.877 -0.043,0.853 -10e-4,0.83 0.041,0.807 0.081,0.784 0.121,0.76 0.16,0.737 0.197,0.714 0.233,0.691 0.269,0.669 0.304,0.647 0.338,0.624 0.371,0.602 0.405,0.582 0.436,0.56 0.469,0.54 0.499,0.517 0.531,0.498 0.561,0.476 0.591,0.456 0.621,0.435 0.65,0.415 0.68,0.394 0.708,0.374 0.738,0.352 0.765,0.332 0.795,0.311 0.822,0.29 0.851,0.269 0.877,0.247 0.906,0.227 0.933,0.204 0.96,0.183 0.987,0.161 1.015,0.138 1.041,0.117 1.067,0.093 1.095,0.071 1.12,0.048 1.146,0.024 0.604,0.003 0,0 c 2.785,0.015 6.752,-2.804 8.859,-6.297 2.108,-3.493 1.559,-6.337 -1.227,-6.351 0,0 0,0 0,0 l -0.481,-0.002 -0.984,-0.02 -0.959,-0.039 -0.932,-0.058 -0.906,-0.078 -0.88,-0.096 -0.853,-0.115 -0.827,-0.133 -0.8,-0.15 -0.774,-0.167 -0.746,-0.184 -0.72,-0.201 -0.691,-0.216 -0.665,-0.231 -0.637,-0.247 -0.61,-0.261 -0.582,-0.275 -0.554,-0.288 -0.526,-0.301 -0.498,-0.314 -0.471,-0.325 -0.443,-0.337 -0.414,-0.346 -0.387,-0.357 -0.36,-0.367 -0.331,-0.373 -0.305,-0.383 -0.276,-0.388 -0.251,-0.395 -0.223,-0.401 -0.197,-0.404 -0.171,-0.408 -0.146,-0.411 -0.121,-0.413 -0.097,-0.414 -0.074,-0.414 -0.05,-0.413 -0.029,-0.412 -0.008,-0.409 0.013,-0.409 0.032,-0.405 0.05,-0.402 0.069,-0.4 0.086,-0.397 0.104,-0.396 0.12,-0.394 0.137,-0.394 0.154,-0.396 0.172,-0.398 0.19,-0.404 0.21,-0.407 0.231,-0.416 0.251,-0.426 0.179,-0.45 0.213,-0.477 0.247,-0.504 0.284,-0.531 0.324,-0.562 0.366,-0.589 0.411,-0.618 0.458,-0.644 0.506,-0.67 0.557,-0.692 0.652,-0.745 0.405,-0.432 c 2.366,-2.196 3.497,-5.039 2.526,-6.349 -0.971,-1.31 -3.676,-0.592 -6.042,1.605 l 0,0"
         inkscape:connector-curvature="0"
         style="fill:#000000" />
      <path
         id="path51"
         d="m 457.22,91.378 -0.288,3.016 -0.554,6.048 -0.545,6.023 -0.584,5.992 -0.656,5.953 -0.556,4.423 -0.409,2.924 -0.446,2.922 -0.485,2.907 -0.528,2.89 -0.575,2.871 -0.3,1.4 0.008,-0.034 -0.164,0.745 -0.324,1.45 -0.318,1.419 -0.307,1.39 -0.29,1.354 -0.265,1.314 -0.231,1.269 -0.151,0.941 -0.086,0.625 -0.07,0.595 -0.054,0.584 -0.035,0.575 -0.016,0.566 0.009,0.558 0.039,0.551 0.073,0.544 0.118,0.536 0.174,0.525 0.245,0.509 0.335,0.48 0.447,0.431 0.577,0.354 0.721,0.246 0.86,0.106 0.976,-0.053 0.709,-0.126 0,0 c 0.183,-0.04 0.371,-0.089 0.563,-0.149 l 0,0 0.103,-0.032 1.639,-0.692 2.777,-1.911 2.446,-2.622 1.325,-2.141 0.583,-1.416 0.305,-1.191 0.139,-1.09 0.041,-0.794 0.024,-0.53 0.022,-0.215 -0.388,0.439 0,0 c 0.599,-2.946 -1.535,-4.15 -4.767,-2.691 -3.233,1.46 -6.339,5.031 -6.939,7.977 0,0 0,0 0,0 l -0.482,0.9 -0.086,0.793 -0.025,0.55 -0.005,0.291 0.037,-0.055 0.159,-0.487 0.44,-0.993 1.136,-1.767 2.203,-2.302 2.477,-1.654 1.27,-0.505 -0.108,0.034 0.563,-0.149 0.422,-0.063 0.446,0.006 0.385,0.08 0.301,0.138 0.209,0.166 0.129,0.164 0.066,0.137 0.022,0.092 -0.004,0.038 -0.017,-0.02 -0.021,-0.079 -0.017,-0.137 -0.008,-0.191 0.002,-0.243 0.015,-0.292 0.028,-0.337 0.042,-0.379 0.053,-0.398 0.107,-0.686 0.191,-1.052 0.234,-1.169 0.271,-1.268 0.3,-1.355 0.32,-1.431 0.331,-1.484 0.165,-0.749 0,0 c 0.003,-0.011 0.005,-0.023 0.008,-0.034 l 0,0 0.333,-1.562 0.612,-3.065 0.558,-3.062 0.51,-3.058 0.465,-3.056 0.427,-3.065 0.575,-4.579 0.669,-6.076 0.59,-6.057 0.546,-6.035 0.523,-6.008 0.266,-3.008 c 0,0 0,0 0,0 0.269,-2.936 -2.324,-3.804 -5.792,-1.938 -3.469,1.865 -6.498,5.758 -6.768,8.694 l 0,0"
         inkscape:connector-curvature="0"
         style="fill:#000000" />
      <path
         id="path53"
         d="m 497.858,89.682 -4.155,3.513 -6.214,5.25 -4.101,3.454 -4.1,3.395 -4.101,3.312 -4.102,3.207 -3.977,3.331 -1.931,1.61 0.038,-0.032 -0.137,0.114 -0.309,0.258 -0.312,0.264 -0.307,0.265 -0.423,0.376 -0.589,0.545 -0.719,0.716 -0.851,0.943 -1.15,1.528 -1.059,1.873 -0.282,0.63 0.053,-0.125 0.08,-0.173 0.068,-0.137 0.047,-0.088 0.015,-0.027 -0.046,0.061 -0.075,0.1 -0.021,0.027 0.784,-0.965 -0.091,0.103 1.515,-1.508 0.881,-0.684 0.043,-0.035 -0.534,0.346 -1.377,1.02 -2.641,2.712 -1.996,3.736 -0.145,2.323 0.555,1.093 0.432,0.378 0,0 c 0.057,0.039 0.117,0.076 0.179,0.111 l 0,0 0.107,0.059 0.429,0.196 0.725,0.215 1.037,0.122 1.07,-0.036 1.191,-0.164 0.746,-0.108 0.052,0.02 -0.16,0.013 -0.118,-0.008 0.82,0.071 1.672,0.135 1.135,0.127 0.665,0.108 0.642,0.141 0.605,0.179 0.239,0.089 -0.094,-0.035 0.536,0.213 0.926,0.436 0.883,0.494 0.882,0.562 0.881,0.626 0.879,0.68 1.326,1.112 1.754,1.582 1.762,1.633 1.803,1.621 1.407,1.173 0.981,0.749 0.515,0.368 0,0 c 0.014,0.01 0.028,0.019 0.042,0.029 l 0,0 0.182,0.123 0.489,0.311 0.578,0.348 0.652,0.376 0.724,0.405 0.794,0.433 0.858,0.458 0.918,0.482 0.974,0.504 1.021,0.521 1.066,0.538 1.103,0.549 1.71,0.841 2.357,1.139 2.404,1.138 2.401,1.113 1.774,0.805 1.157,0.516 1.129,0.497 1.095,0.473 1.058,0.448 1.014,0.421 0.964,0.389 0.911,0.356 0.853,0.32 0.791,0.281 0.728,0.242 0.668,0.199 0.344,0.092 0,0 c 2.374,0.626 6.375,-1.652 8.938,-5.089 2.562,-3.436 2.716,-6.729 0.342,-7.355 l -0.183,-0.047 -0.517,-0.152 -0.621,-0.205 -0.711,-0.252 -0.79,-0.296 -0.861,-0.336 -0.923,-0.372 -0.979,-0.406 -1.026,-0.435 -1.07,-0.462 -1.105,-0.486 -1.131,-0.505 -1.739,-0.789 -2.367,-1.096 -2.372,-1.123 -2.329,-1.125 -1.688,-0.83 -1.085,-0.541 -1.045,-0.527 -1.001,-0.511 -0.948,-0.49 -0.891,-0.468 -0.826,-0.441 -0.754,-0.411 -0.674,-0.376 -0.586,-0.337 -0.486,-0.291 -0.391,-0.247 -0.184,-0.125 0.042,0.029 -0.407,-0.287 -0.843,-0.64 -1.291,-1.072 -1.758,-1.58 -1.803,-1.671 -1.864,-1.677 -1.454,-1.216 -1.017,-0.781 -1.056,-0.743 -1.104,-0.694 -1.156,-0.633 -1.174,-0.542 -0.538,-0.215 0,0 c -0.031,-0.012 -0.062,-0.024 -0.094,-0.035 l 0,0 -0.535,-0.183 -0.972,-0.27 -0.962,-0.2 -0.963,-0.148 -1.333,-0.146 -1.634,-0.132 -0.823,-0.071 0,0 c -0.039,-0.003 -0.078,-0.006 -0.118,-0.008 l 0,0 -0.663,-0.014 -0.973,0.071 -0.821,0.119 -0.368,0.073 0.058,0.033 0.063,0.052 0.027,0.039 -0.016,0.005 -0.11,-0.061 0.179,0.111 0.332,0.308 0.428,0.948 -0.178,2.169 -1.949,3.573 -2.441,2.454 -0.921,0.654 0.059,-0.043 0.691,-0.44 1.501,-1.099 2.025,-1.931 0.095,-0.109 0,0 c 0.278,-0.314 0.539,-0.637 0.784,-0.965 l 0,0 0.196,-0.265 0.323,-0.445 0.307,-0.438 0.325,-0.482 0.441,-0.693 0.476,-0.818 0.38,-0.729 0.273,-0.584 -0.041,0.075 -0.76,1.255 -0.824,1.049 -0.534,0.572 -0.289,0.274 -0.019,0.01 0.112,-0.102 0.109,-0.096 0.153,-0.133 0.211,-0.179 0.144,-0.121 0,0 c 0.013,-0.011 0.026,-0.021 0.038,-0.032 l 0,0 2.237,-1.897 4.257,-3.786 4.015,-4.031 3.919,-4.029 3.844,-4.03 3.789,-4.035 5.566,-6.064 3.692,-4.056 c 1.383,-1.334 1.993,-3.006 1.362,-3.734 -0.63,-0.728 -2.263,-0.237 -3.646,1.098 l 0,0"
         inkscape:connector-curvature="0"
         style="fill:#000000" />
      <path
         id="path55"
         d="m 342.406,91.743 0.054,-0.108 0.107,-0.176 0.147,-0.254 0.169,-0.306 0.164,-0.32 0.151,-0.337 0.129,-0.389 0.085,-0.68 -1.242,-1.076 -2.93,1.614 -0.574,0.646 0,0 c -0.032,0.041 -0.064,0.082 -0.095,0.124 l 0,0 -0.181,0.198 -0.355,0.394 -0.334,0.377 -0.308,0.354 -0.283,0.334 -0.264,0.315 -0.244,0.297 -0.226,0.282 -0.21,0.269 -0.196,0.259 -0.255,0.354 -0.307,0.465 -0.309,0.544 -0.311,0.708 -0.224,1.043 0.422,1.218 1.44,0.307 1.534,-0.548 1.102,-0.685 0.63,-0.466 0.258,-0.195 -0.005,0.015 -0.312,0.251 -2.528,1.121 -0.868,-3.801 0.457,-0.651 0.028,-0.059 -0.132,0.118 -0.167,0.157 -0.143,0.136 -0.169,0.161 -0.193,0.184 -0.216,0.207 -0.24,0.23 -0.264,0.255 -0.288,0.28 -0.314,0.304 -0.34,0.331 -0.368,0.358 -0.396,0.386 -0.206,0.204 0.008,-0.009 -0.066,0.065 -0.131,0.126 -0.243,0.231 -0.376,0.356 -0.373,0.347 -0.231,0.21 -0.103,0.087 -0.059,0.045 0.038,-0.05 0.258,-0.246 1.158,-0.883 4.664,0.762 -0.971,2.758 -0.289,0.433 -0.158,0.209 0.048,-0.056 -0.105,0.149 -0.081,0.115 -10e-4,0.02 0.138,-0.113 0.307,-0.267 0.409,-0.355 0.505,-0.439 0.578,-0.499 0.631,-0.548 1.031,-0.886 1.431,-1.238 1.072,-0.93 0.699,-0.612 0.677,-0.594 0.643,-0.57 0.6,-0.539 0.555,-0.504 0.507,-0.467 0.369,-0.348 0.256,-0.247 0.245,-0.244 0.273,-0.279 0.34,-0.365 0.501,-0.587 0.9,-1.273 1.044,-3.39 -2.598,-1.714 -1.841,0.616 -0.829,0.458 -0.505,0.323 -0.391,0.268 -0.35,0.251 -0.348,0.255 -0.36,0.268 -0.383,0.291 -0.413,0.32 -0.447,0.349 -0.485,0.382 -0.526,0.416 -0.569,0.454 -0.613,0.496 -0.66,0.537 -0.708,0.577 -0.757,0.625 -0.4,0.331 0,0 c -2.658,2.124 -4.275,5.248 -3.613,6.976 0.662,1.729 3.353,1.409 6.011,-0.716 0,0 0,0 0,0 l 0.391,-0.301 0.746,-0.575 0.689,-0.535 0.636,-0.492 0.583,-0.45 0.53,-0.412 0.478,-0.371 0.427,-0.331 0.376,-0.288 0.322,-0.245 0.268,-0.205 0.209,-0.159 0.142,-0.107 0.061,-0.047 -0.052,0.032 -0.239,0.146 -0.632,0.339 -1.711,0.553 -2.532,-1.724 1.047,-3.348 0.844,-1.182 0.389,-0.448 0.173,-0.181 0.054,-0.053 -0.022,0.024 -0.059,0.06 -0.185,0.181 -0.371,0.357 -0.464,0.439 -0.541,0.507 -0.6,0.562 -0.646,0.607 -0.685,0.643 -1.073,1.018 -1.454,1.392 -1.064,1.039 -0.693,0.683 -0.666,0.669 -0.64,0.652 -0.614,0.64 -0.575,0.618 -0.42,0.466 -0.317,0.364 -0.351,0.421 -0.327,0.417 -0.043,0.062 0,0 c -0.054,0.069 -0.106,0.139 -0.158,0.209 l 0,0 -0.381,0.558 -1.072,2.916 4.664,0.806 1.246,-0.94 0.425,-0.392 0.271,-0.272 0.231,-0.243 0.232,-0.252 0.33,-0.372 0.428,-0.496 0.405,-0.478 0.275,-0.327 0.162,-0.194 0.06,-0.073 0,0 c 0.003,-0.003 0.006,-0.006 0.008,-0.009 l 0,0 0.181,-0.222 0.339,-0.422 0.315,-0.393 0.292,-0.365 0.271,-0.338 0.249,-0.31 0.228,-0.286 0.207,-0.264 0.19,-0.24 0.172,-0.219 0.157,-0.199 0.146,-0.185 0.199,-0.251 0.242,-0.303 0.282,-0.351 0.603,-0.83 -0.816,-3.882 -2.557,1.124 -0.408,0.322 -0.158,0.141 -0.046,0.06 0.153,-0.075 0.637,-0.347 1.256,-0.402 1.314,0.327 0.356,1.156 -0.216,0.887 -0.215,0.443 -0.113,0.152 0.003,-0.065 0.059,-0.145 0.056,-0.125 0.077,-0.159 0.099,-0.19 0.119,-0.223 0.141,-0.253 0.162,-0.286 0.183,-0.317 0.2,-0.35 0.227,-0.389 0.129,-0.215 -0.095,0.124 -0.521,0.577 -2.853,1.538 -1.206,-1.078 0.087,-0.615 0.076,-0.187 0,0.091 -0.05,0.224 -0.074,0.293 -0.09,0.334 -0.09,0.338 -0.019,0.099 c -0.474,1.347 0.219,2.101 1.548,1.683 1.328,-0.418 2.79,-1.849 3.264,-3.197 l 0,0"
         inkscape:connector-curvature="0"
         style="fill:#000000" />
      <text
         id="text57"
         transform="matrix(1,-0.021,0.021,1,346.75,219.847)">
        <tspan
           id="tspan59"
           font-size="26"
           y="4.2179999"
           x="-189.04601"
           style="font-size:26px;font-family:PingFangSC-Semibold;fill:#000000">Trustworthy Random Numbers</tspan>
      </text>
      <text
         id="text61"
         transform="matrix(1,-0.021,0.021,1,346.534,238.563)">
        <tspan
           id="tspan63"
           font-size="19"
           y="6.5"
           x="-174.57201"
           style="font-size:19px;font-family:PingFangSC-Semibold;fill:#000000">Derived from the Ethereum blockchain</tspan>
      </text>
    </g>
  </g>
</svg>
